<svg version="1.0" xmlns="http://www.w3.org/2000/svg"
 width="70.000000pt" height="70.000000pt" viewBox="0 0 880.000000 363.000000"
 preserveAspectRatio="xMidYMid meet">

<g transform="translate(0.000000,363.000000) scale(0.100000,-0.100000)"
fill="#000000" stroke="none">
<path d="M4087 3202 c-15 -17 -17 -63 -17 -450 l0 -431 -181 -3 c-176 -3 -181
-4 -200 -27 -18 -22 -19 -43 -19 -345 l0 -321 -317 -79 c-175 -43 -326 -86
-335 -94 -17 -14 -18 -50 -18 -479 l0 -463 -84 0 c-47 0 -96 -4 -110 -10 -34
-12 -44 -54 -21 -80 18 -20 42 -20 1620 -20 1578 0 1602 0 1620 20 23 26 13
68 -21 80 -14 6 -50 10 -80 10 l-54 0 0 316 c0 198 -4 322 -10 335 -8 14 -21
19 -55 19 l-45 0 0 65 c0 141 -32 165 -215 165 l-125 0 0 348 c0 271 -3 352
-13 366 -8 11 -31 20 -61 23 -41 5 -49 10 -60 37 -17 38 -81 101 -118 115
l-28 11 0 172 c0 186 -8 220 -49 226 -12 2 -31 -4 -42 -14 -17 -16 -19 -32
-19 -200 l0 -184 -32 -13 c-50 -21 -92 -61 -113 -106 -10 -23 -22 -41 -27 -41
-4 0 -8 108 -8 240 l0 240 -52 33 c-29 19 -180 107 -335 197 l-281 164 -4 84
c-2 69 -6 86 -22 98 -27 19 -50 18 -69 -4z m433 -498 l225 -131 3 -1032 2
-1031 -60 0 -60 0 0 993 c0 882 -2 995 -16 1015 -18 26 -50 28 -76 5 -17 -15
-18 -60 -18 -1015 l0 -998 -60 0 -60 0 0 889 c0 814 -1 890 -17 902 -10 9 -50
15 -110 17 l-93 4 0 290 0 289 58 -32 c31 -18 158 -93 282 -165z m-222 -556
l3 -58 -261 0 -260 0 0 60 0 60 258 -2 257 -3 3 -57z m863 26 c16 -15 32 -43
35 -63 9 -51 30 -71 76 -71 l38 0 0 -60 0 -60 -230 0 -230 0 0 60 0 60 44 0
c47 0 76 24 76 63 0 30 28 76 58 92 39 22 98 13 133 -21z m-866 -254 l0 -55
-257 -3 -258 -2 0 60 0 60 258 -2 257 -3 0 -55z m1015 -318 c0 -275 22 -253
-251 -250 l-204 3 -3 228 -2 227 230 0 230 0 0 -208z m-1012 96 l3 -58 -261 0
-260 0 0 60 0 60 258 -2 257 -3 3 -57z m-3 -228 l0 -55 -257 -3 -258 -2 0 60
0 60 258 -2 257 -3 0 -55z m-625 -460 l0 -500 -60 0 -60 0 0 380 0 380 -25 16
c-23 15 -27 15 -50 0 l-25 -16 0 -380 0 -380 -60 0 -60 0 0 343 c0 372 -2 387
-55 387 -53 0 -55 -15 -55 -387 l0 -343 -60 0 -60 0 2 432 3 432 265 67 c146
37 273 68 283 68 16 1 17 -29 17 -499z m630 242 c0 -26 -5 -53 -12 -60 -9 -9
-80 -12 -260 -12 l-248 0 0 60 0 60 260 0 260 0 0 -48z m1350 -12 l0 -61 -142
3 -143 3 -3 58 -3 57 146 0 145 0 0 -60z m-395 -25 c0 -28 -3 -30 -42 -33 -69
-5 -73 -18 -73 -219 l0 -173 -145 0 -145 0 0 223 c0 123 3 227 7 231 4 3 95 5
202 4 l196 -3 0 -30z m-957 -197 l3 -58 -261 0 -260 0 0 60 0 60 258 -2 257
-3 3 -57z m1462 2 l0 -60 -255 0 -255 0 0 60 0 60 255 0 255 0 0 -60z m-1462
-227 l-3 -58 -257 -3 -258 -2 0 60 0 60 260 0 261 0 -3 -57z m1462 -3 l0 -60
-255 0 -255 0 0 60 0 60 255 0 255 0 0 -60z m-620 -195 l0 -85 -145 0 -145 0
0 85 0 85 145 0 145 0 0 -85z m-842 -27 l3 -58 -261 0 -260 0 0 60 0 60 258
-2 257 -3 3 -57z m1462 2 l0 -60 -255 0 -255 0 0 60 0 60 255 0 255 0 0 -60z"/>
</g>
</svg>